<mxfile host="drawio-plugin" modified="2022-07-26T20:39:06.311Z" agent="5.0 (Windows NT 6.2; Win64; x64) AppleWebKit/537.36 (KHTML, like Gecko) Chrome/97.0.4692.45 Safari/537.36" etag="G0TMAm81OzWz0iARYXc7" version="15.5.4" type="embed"><diagram id="23iRSUPoRavnBvh4doch" name="Page-1"><mxGraphModel dx="572" dy="418" grid="0" gridSize="10" guides="1" tooltips="1" connect="1" arrows="1" fold="1" page="1" pageScale="1" pageWidth="827" pageHeight="1169" math="0" shadow="0"><root><mxCell id="0"/><mxCell id="1" parent="0"/><mxCell id="6" value="1-N" style="edgeStyle=none;rounded=0;orthogonalLoop=1;jettySize=auto;html=1;exitX=0.5;exitY=1;exitDx=0;exitDy=0;entryX=0.5;entryY=0;entryDx=0;entryDy=0;" edge="1" parent="1" source="2" target="3"><mxGeometry relative="1" as="geometry"/></mxCell><mxCell id="2" value="Restaraunt&lt;br&gt;" style="rounded=0;whiteSpace=wrap;html=1;flipH=1;" parent="1" vertex="1"><mxGeometry x="69" y="189" width="120" height="60" as="geometry"/></mxCell><mxCell id="5" value="1-N" style="rounded=0;orthogonalLoop=1;jettySize=auto;html=1;" edge="1" parent="1" source="3" target="4"><mxGeometry relative="1" as="geometry"/></mxCell><mxCell id="3" value="Category" style="rounded=0;whiteSpace=wrap;html=1;flipH=1;" vertex="1" parent="1"><mxGeometry x="160" y="307" width="120" height="60" as="geometry"/></mxCell><mxCell id="4" value="Dish" style="rounded=0;whiteSpace=wrap;html=1;flipH=1;" vertex="1" parent="1"><mxGeometry x="162" y="434" width="120" height="60" as="geometry"/></mxCell><mxCell id="8" style="edgeStyle=none;rounded=0;orthogonalLoop=1;jettySize=auto;html=1;exitX=0.5;exitY=1;exitDx=0;exitDy=0;entryX=0.75;entryY=0;entryDx=0;entryDy=0;dashed=1;" edge="1" parent="1" source="7" target="3"><mxGeometry relative="1" as="geometry"/></mxCell><mxCell id="9" style="edgeStyle=none;rounded=0;orthogonalLoop=1;jettySize=auto;html=1;exitX=1;exitY=1;exitDx=0;exitDy=0;entryX=0.75;entryY=0;entryDx=0;entryDy=0;dashed=1;" edge="1" parent="1" source="7" target="4"><mxGeometry relative="1" as="geometry"/></mxCell><mxCell id="7" value="Menu" style="rounded=0;whiteSpace=wrap;html=1;dashed=1;" vertex="1" parent="1"><mxGeometry x="302" y="204" width="120" height="60" as="geometry"/></mxCell></root></mxGraphModel></diagram></mxfile>